<svg xmlns="http://www.w3.org/2000/svg" width="46" height="46" viewBox="0 0 46 46">
    <g fill="none" fill-rule="evenodd">
        <circle cx="23" cy="23" r="23" fill="#5EBE5B"/>
        <path fill="#FFF" d="M31.093 14.998a8.15 8.15 0 0 0-2.52-4.806A8.15 8.15 0 0 0 23 8a8.15 8.15 0 0 0-5.572 2.192 8.15 8.15 0 0 0-2.521 4.806A8.199 8.199 0 0 0 10 22.495c0 4.51 3.669 8.178 8.178 8.178 1.39 0 2.744-.354 3.943-1.014v8.333h1.758V29.66a8.171 8.171 0 0 0 3.943 1.014c4.51 0 8.178-3.669 8.178-8.178 0-3.26-1.95-6.206-4.907-7.497zm-3.27 13.917a6.413 6.413 0 0 1-3.944-1.354v-5.375l3.94-2.072-.817-1.555L23.88 20.2v-3.46H22.12v7.355l-3.123-1.642-.818 1.555 3.941 2.072v1.48a6.413 6.413 0 0 1-3.943 1.354c-3.54 0-6.42-2.88-6.42-6.42a6.435 6.435 0 0 1 4.26-6.048l.537-.192.043-.569a6.396 6.396 0 0 1 2.028-4.208A6.398 6.398 0 0 1 23 9.758c1.63 0 3.183.61 4.375 1.72a6.396 6.396 0 0 1 2.027 4.208l.043.57.538.191a6.435 6.435 0 0 1 4.26 6.048c0 3.54-2.88 6.42-6.42 6.42z"/>
    </g>
</svg>
