<svg xmlns="http://www.w3.org/2000/svg" width="46" height="46" viewBox="0 0 46 46">
    <g fill="none" fill-rule="evenodd">
        <g>
            <circle cx="23" cy="23" r="23" fill="#D8D8D8"/>
            <path fill="#FFF" d="M23 8a8.15 8.15 0 0 1 5.572 2.192 8.15 8.15 0 0 1 2.521 4.806A8.198 8.198 0 0 1 36 22.495c0 4.51-3.669 8.178-8.178 8.178a8.171 8.171 0 0 1-3.943-1.014l.121.064V32h-2l.001-2.276a8.171 8.171 0 0 1-3.823.949c-4.51 0-8.178-3.669-8.178-8.178 0-3.26 1.95-6.206 4.907-7.497a8.15 8.15 0 0 1 2.52-4.806A8.15 8.15 0 0 1 23 8zm0 1.757c-1.63 0-3.183.612-4.374 1.721a6.396 6.396 0 0 0-2.028 4.208l-.043.57-.537.191a6.435 6.435 0 0 0-4.26 6.048c0 3.54 2.88 6.42 6.42 6.42 1.434 0 2.82-.478 3.943-1.354l-.121.09v-1.634l-3.82-2.008.818-1.555L22 24.032V16h2v4.136l3.002-1.577.818 1.555L24 22.122v5.53a6.412 6.412 0 0 0 3.536 1.257l.286.006c3.54 0 6.42-2.88 6.42-6.42a6.435 6.435 0 0 0-4.26-6.048l-.537-.192-.043-.569a6.396 6.396 0 0 0-2.027-4.208A6.399 6.399 0 0 0 23 9.758z"/>
            <path stroke="#FFF" stroke-width="2" d="M38.37 20.905A7 7 0 0 0 32 11M34 30a5 5 0 0 0 5-5M13.354 10.99A7.003 7.003 0 0 0 7.3 19.913M8 25.905a5 5 0 0 0 5 5"/>
        </g>
        <path fill="#FFF" d="M9 36h28v2H9z"/>
        <path stroke="#FFF" stroke-width="2" d="M35 36a4 4 0 1 0-8 0M27 36a4 4 0 1 0-8 0M19 36a4 4 0 1 0-8 0"/>
    </g>
</svg>
