<svg xmlns="http://www.w3.org/2000/svg" width="95" height="49" viewBox="0 0 95 49">
    <g fill="none" fill-rule="evenodd" transform="translate(0 2)">
        <path fill="#5EBE5B" fill-rule="nonzero" d="M37.423 26.104l4.204 1.334c-.645 2.343-1.716 4.084-3.215 5.222-1.5 1.137-3.401 1.706-5.706 1.706-2.852 0-5.195-.974-7.031-2.922-1.836-1.948-2.754-4.612-2.754-7.99 0-3.575.923-6.351 2.768-8.329 1.846-1.977 4.273-2.966 7.28-2.966 2.628 0 4.761.777 6.402 2.33.977.917 1.71 2.236 2.197 3.954l-4.292 1.026c-.254-1.114-.783-1.992-1.589-2.637-.806-.645-1.785-.967-2.937-.967-1.592 0-2.883.572-3.875 1.714-.99 1.143-1.486 2.993-1.486 5.552 0 2.715.488 4.648 1.465 5.8.976 1.153 2.246 1.73 3.808 1.73 1.152 0 2.144-.367 2.974-1.1.83-.732 1.426-1.884 1.787-3.457zm6.046-2.71c0-2.187.327-4.023.981-5.507a10.107 10.107 0 0 1 2-2.945c.844-.869 1.77-1.513 2.776-1.933 1.337-.567 2.88-.85 4.628-.85 3.165 0 5.696.982 7.596 2.945 1.9 1.962 2.849 4.692 2.849 8.188 0 3.467-.943 6.18-2.827 8.137-1.885 1.958-4.405 2.937-7.559 2.937-3.193 0-5.732-.974-7.617-2.922-1.885-1.948-2.827-4.631-2.827-8.05zm4.468-.146c0 2.432.561 4.275 1.684 5.53 1.123 1.255 2.549 1.882 4.277 1.882 1.729 0 3.147-.622 4.256-1.868 1.108-1.245 1.662-3.112 1.662-5.603 0-2.46-.54-4.296-1.618-5.507-1.08-1.211-2.512-1.817-4.3-1.817-1.787 0-3.227.613-4.32 1.839-1.095 1.225-1.641 3.073-1.641 5.544zM71.13 33.47V35h-5.77c.062-.578.25-1.126.562-1.644.312-.517.93-1.204 1.851-2.06.742-.69 1.197-1.16 1.365-1.405.227-.34.34-.676.34-1.008 0-.367-.098-.65-.296-.847-.197-.197-.47-.296-.817-.296-.344 0-.617.104-.82.31-.204.208-.32.552-.352 1.032l-1.64-.164c.097-.906.404-1.557.92-1.951.515-.395 1.16-.592 1.933-.592.848 0 1.514.229 1.998.686.484.457.727 1.025.727 1.705 0 .386-.07.755-.208 1.104-.14.35-.359.716-.66 1.099-.199.254-.558.619-1.078 1.095-.52.477-.848.793-.987.95a2.842 2.842 0 0 0-.337.457h3.27z"/>
        <path stroke="#5EBE5B" stroke-width="3" d="M44 0c7.533 0 14.2 3.702 18.285 9.385A10.447 10.447 0 0 1 67.5 8C73.299 8 78 12.701 78 18.5c0 .766-.082 1.512-.237 2.23A13.438 13.438 0 0 1 81 29.5C81 36.956 74.956 43 67.5 43c-3.418 0-6.54-1.27-8.918-3.365A22.408 22.408 0 0 1 44 45c-4.29 0-8.299-1.2-11.71-3.284A15.946 15.946 0 0 1 26 43c-8.696 0-15.771-6.937-15.995-15.58a8.003 8.003 0 0 1 4.973-15.174C16.82 7.984 21.061 5 26 5c1.147 0 2.256.16 3.306.461A22.407 22.407 0 0 1 44 0z"/>
        <circle cx="89.5" cy="18.5" r="5.5" fill="#5EBE5B"/>
        <circle cx="3.5" cy="31.5" r="3.5" fill="#5EBE5B"/>
        <circle cx="81.5" cy="7.5" r="3.5" fill="#5EBE5B"/>
        <circle cx="85.5" cy="27.5" r="1.5" fill="#5EBE5B"/>
        <circle cx="11.5" cy="7.5" r="1.5" fill="#5EBE5B"/>
        <circle cx="6.5" cy="39.5" r="1.5" fill="#5EBE5B"/>
    </g>
</svg>
