<svg xmlns="http://www.w3.org/2000/svg" width="79" height="48" viewBox="0 0 79 48">
    <g fill="none" fill-rule="evenodd" transform="translate(0 1)">
        <path fill="#5EBE5B" fill-rule="nonzero" d="M25.38 23.395c0-2.188.326-4.024.98-5.508a10.107 10.107 0 0 1 2-2.945c.845-.869 1.77-1.513 2.776-1.933 1.338-.567 2.88-.85 4.629-.85 3.164 0 5.696.982 7.595 2.945 1.9 1.962 2.85 4.692 2.85 8.188 0 3.467-.943 6.18-2.828 8.137-1.885 1.958-4.404 2.937-7.559 2.937-3.193 0-5.732-.974-7.617-2.922-1.885-1.948-2.827-4.631-2.827-8.05zm4.467-.147c0 2.432.561 4.275 1.684 5.53 1.123 1.255 2.55 1.882 4.278 1.882 1.728 0 3.147-.622 4.255-1.868 1.109-1.245 1.663-3.112 1.663-5.603 0-2.46-.54-4.296-1.619-5.507-1.079-1.211-2.512-1.817-4.3-1.817-1.786 0-3.227.613-4.32 1.839-1.094 1.225-1.641 3.073-1.641 5.544zM53.13 33.47V35h-5.77c.062-.578.25-1.126.562-1.644.312-.517.93-1.204 1.851-2.06.742-.69 1.197-1.16 1.365-1.405.227-.34.34-.676.34-1.008 0-.367-.098-.65-.296-.847-.197-.197-.47-.296-.817-.296-.344 0-.617.104-.82.31-.204.208-.32.552-.352 1.032l-1.64-.164c.097-.906.404-1.557.92-1.951.515-.395 1.16-.592 1.933-.592.848 0 1.514.229 1.998.686.484.457.727 1.025.727 1.705 0 .386-.07.755-.208 1.104-.14.35-.359.716-.66 1.099-.199.254-.558.619-1.078 1.095-.52.477-.848.793-.987.95a2.842 2.842 0 0 0-.337.457h3.27z"/>
        <circle cx="39" cy="23" r="22" stroke="#5EBE5B" stroke-width="3"/>
        <circle cx="72" cy="15" r="7" fill="#5EBE5B"/>
        <circle cx="6" cy="28" r="6" fill="#5EBE5B"/>
        <circle cx="64.5" cy="3.5" r="3.5" fill="#5EBE5B"/>
        <circle cx="67.5" cy="26.5" r="1.5" fill="#5EBE5B"/>
        <circle cx="14.5" cy="40.5" r="3.5" fill="#5EBE5B"/>
    </g>
</svg>
